<svg width="987" height="988" xmlns="http://www.w3.org/2000/svg" xmlns:xlink="http://www.w3.org/1999/xlink" xml:space="preserve" overflow="hidden"><g transform="translate(-1237 -637)"><rect x="1276" y="1334.52" width="545.479" height="251.479" fill="#FFFFFF"/><path d="M1821.48 1334.52 2185 971 2185 1222.48 1821.48 1586Z" fill="#FFFFFF" fill-rule="evenodd"/><path d="M1276 1334.52 1639.52 971 2185 971 1821.48 1334.52Z" fill="#FFFFFF" fill-rule="evenodd"/><path d="M1276 1334.52 1639.52 971 2185 971 2185 1222.48 1821.48 1586 1276 1586ZM1276 1334.52 1821.48 1334.52 2185 971M1821.48 1334.52 1821.48 1586" stroke="#000000" stroke-width="77.9167" stroke-linecap="round" stroke-linejoin="bevel" stroke-miterlimit="10" fill="none" fill-rule="evenodd"/><path d="M1657 748.017C1657 787.791 1731.77 820.034 1824 820.034 1916.23 820.034 1991 787.791 1991 748.017L1991 1048.98C1991 1088.76 1916.23 1121 1824 1121 1731.77 1121 1657 1088.76 1657 1048.98Z" fill="#FFFFFF" fill-rule="evenodd"/><path d="M1657 748.017C1657 708.243 1731.77 676 1824 676 1916.23 676 1991 708.243 1991 748.017 1991 787.791 1916.23 820.034 1824 820.034 1731.77 820.034 1657 787.791 1657 748.017Z" fill="#FFFFFF" fill-rule="evenodd"/><path d="M1991 748.017C1991 787.791 1916.23 820.034 1824 820.034 1731.77 820.034 1657 787.791 1657 748.017 1657 708.243 1731.77 676 1824 676 1916.23 676 1991 708.243 1991 748.017L1991 1048.98C1991 1088.76 1916.23 1121 1824 1121 1731.77 1121 1657 1088.76 1657 1048.98L1657 748.017" stroke="#000000" stroke-width="77.9167" stroke-linecap="round" stroke-linejoin="bevel" stroke-miterlimit="10" fill="none" fill-rule="evenodd"/><rect x="1563" y="1215.65" width="109.345" height="30.3457"/><path d="M1672.35 1215.65 1700 1188 1700 1218.35 1672.35 1246Z" fill-rule="evenodd"/><path d="M1563 1215.65 1590.65 1188 1700 1188 1672.35 1215.65Z" fill="#323232" fill-rule="evenodd"/><path d="M1563 1215.65 1590.65 1188 1700 1188 1700 1218.35 1672.35 1246 1563 1246ZM1563 1215.65 1672.35 1215.65 1700 1188M1672.35 1215.65 1672.35 1246" stroke="#000000" stroke-width="77.9167" stroke-linecap="round" stroke-linejoin="bevel" stroke-miterlimit="10" fill="none" fill-rule="evenodd"/></g></svg>